<svg xmlns="http://www.w3.org/2000/svg" width="177" height="37" viewBox="0 0 177 37"><path fill="#0b0b15" d="M11.20 36.10L3.85 36.10L3.85 3.50L24.40 3.50L24.40 9.70L11.20 9.70L11.20 17.25L22.50 17.25L22.50 23.45L11.20 23.45L11.20 36.10ZM35.95 36.70L35.95 36.70Q31.90 36.70 30.08 34.05Q28.25 31.40 28.25 26.70L28.25 26.70L28.25 11.30L35.60 11.30L35.60 25.75Q35.60 28.45 36.35 29.45Q37.10 30.45 38.70 30.45L38.70 30.45Q40.10 30.45 41.05 29.80Q42 29.15 43.10 27.70L43.10 27.70L43.10 11.30L50.45 11.30L50.45 36.10L44.45 36.10L43.90 32.65L43.75 32.65Q42.15 34.55 40.33 35.63Q38.50 36.70 35.95 36.70ZM64.25 36.10L56.90 36.10L56.90 11.30L62.90 11.30L63.40 14.45L63.60 14.45Q65.20 12.95 67.10 11.82Q69 10.70 71.55 10.70L71.55 10.70Q75.60 10.70 77.43 13.35Q79.25 16 79.25 20.70L79.25 20.70L79.25 36.10L71.90 36.10L71.90 21.65Q71.90 18.95 71.18 17.95Q70.45 16.95 68.85 16.95L68.85 16.95Q67.45 16.95 66.45 17.57Q65.45 18.20 64.25 19.35L64.25 19.35L64.25 36.10ZM93.45 36.10L86.10 36.10L86.10 3.50L93.45 3.50L93.45 16.85L93.65 16.85L103.35 3.50L111.45 3.50L101.60 16.50L113.25 36.10L105.20 36.10L97.25 22.35L93.45 27.35L93.45 36.10ZM123.55 36.10L116.20 36.10L116.20 11.30L123.55 11.30L123.55 36.10ZM119.85 7.65L119.85 7.65Q118 7.65 116.80 6.57Q115.60 5.50 115.60 3.80L115.60 3.80Q115.60 2.10 116.80 1.05Q118 0 119.85 0L119.85 0Q121.75 0 122.93 1.05Q124.10 2.10 124.10 3.80L124.10 3.80Q124.10 5.50 122.93 6.57Q121.75 7.65 119.85 7.65ZM138.85 36.70L138.85 36.70Q136.55 36.70 134.68 35.80Q132.80 34.90 131.47 33.23Q130.15 31.55 129.43 29.15Q128.70 26.75 128.70 23.70L128.70 23.70Q128.70 20.65 129.57 18.25Q130.45 15.85 131.88 14.18Q133.30 12.50 135.18 11.60Q137.05 10.70 139 10.70L139 10.70Q141.10 10.70 142.45 11.40Q143.80 12.10 145.10 13.30L145.10 13.30L144.80 9.50L144.80 1.05L152.15 1.05L152.15 36.10L146.15 36.10L145.65 33.65L145.45 33.65Q144.15 34.95 142.40 35.83Q140.65 36.70 138.85 36.70ZM140.75 30.70L140.75 30.70Q141.95 30.70 142.93 30.20Q143.90 29.70 144.80 28.45L144.80 28.45L144.80 18.30Q143.80 17.40 142.75 17.05Q141.70 16.70 140.70 16.70L140.70 16.70Q138.95 16.70 137.60 18.38Q136.25 20.05 136.25 23.60L136.25 23.60Q136.25 27.30 137.43 29Q138.60 30.70 140.75 30.70ZM165.95 36.70L165.95 36.70Q163.50 36.70 160.93 35.75Q158.35 34.80 156.45 33.25L156.45 33.25L159.75 28.65Q161.45 29.95 163 30.60Q164.55 31.25 166.15 31.25L166.15 31.25Q167.80 31.25 168.55 30.70Q169.30 30.15 169.30 29.15L169.30 29.15Q169.30 28.55 168.88 28.08Q168.45 27.60 167.72 27.20Q167 26.80 166.10 26.48Q165.20 26.15 164.25 25.75L164.25 25.75Q163.10 25.30 161.95 24.70Q160.80 24.10 159.85 23.23Q158.90 22.35 158.30 21.18Q157.70 20 157.70 18.45L157.70 18.45Q157.70 16.75 158.38 15.30Q159.05 13.85 160.30 12.85Q161.55 11.85 163.30 11.27Q165.05 10.70 167.20 10.70L167.20 10.70Q170.05 10.70 172.20 11.68Q174.35 12.65 175.95 13.85L175.95 13.85L172.65 18.25Q171.30 17.25 170 16.70Q168.70 16.15 167.40 16.15L167.40 16.15Q164.60 16.15 164.60 18.10L164.60 18.10Q164.60 18.70 165 19.13Q165.40 19.55 166.08 19.90Q166.75 20.25 167.63 20.58Q168.50 20.90 169.45 21.25L169.45 21.25Q170.65 21.70 171.83 22.27Q173 22.85 173.97 23.70Q174.95 24.55 175.55 25.77Q176.15 27 176.15 28.70L176.15 28.70Q176.15 30.40 175.50 31.85Q174.85 33.30 173.55 34.38Q172.25 35.45 170.35 36.08Q168.45 36.70 165.95 36.70Z"></path></svg>